<svg xmlns="http://www.w3.org/2000/svg" width="1000" height="286.6" viewBox="0 0 1000 286.6">
  <rect width="1000" height="286.6" fill="#e5e5e5"/>
  <g transform="translate(426, 30) scale(0.578)">
    <path d="m256 127.5-94.72-14.64 24.38-42.8-41.34 24.38-15.93-94.46-15.69 94.81-41.69-24.65 24.74 42.09-95.14 15.27 95.1 16.22-24.83 41.17 41.33-23.6 15.69 94 15.93-94.2 41.69 23.71-24.45-41.22 94.93-16.08zm-112.1-27.99 23.45-13.09-31.96 31.28 8.51-18.19zm12.18 11.88-19.2 10.6 33.36-33.93-14.16 23.33zm-29.95-74.93v81.68l-9.9-20.51 9.9-61.17zm4.52 0l9.9 61.17-9.9 20.51v-81.68zm-17.81 62.53 6.28 17.09-30.02-30.02 23.74 12.93zm-25.28-10.55 30.43 30.43-17.18-7.76-13.25-22.67zm-50.78 37.87 62.13-10.18 20.33 10.18h-82.46zm0.27 2.38h82.92l-21.02 11.08-61.9-11.08zm62.29 15.16 18.58-10.26-31.07 35.06 12.49-24.8zm13.32 12.74-23.74 13.76 32.13-33.98-8.39 20.22zm13.47 61.27-10.03-59.12 10.03-22.67v81.79zm3.25-0.62v-81.3l11 21.96-11 59.34zm15.59-61.14-9.9-19.94 33.05 33.05-23.15-13.11zm24.84 12-32.54-33.93 19.9 9.94 12.64 23.99zm-11.82-28.33-20.93-11.08h82.56l-61.63 11.08zm-21.51-13.46 22.59-11.13 60.07 10.51-82.66 0.62z" fill="#00529B"/>
  </g>
  <text x="500" y="220" font-family="Verdana, Nunito, Arial, sans-serif" font-size="40" font-weight="bold" fill="#00529B" text-anchor="middle">Sirius Desk</text>
  <text x="500" y="255" font-family="Verdana, Nunito, Arial, sans-serif" font-size="22.6" font-weight="600" fill="#00529B" text-anchor="middle">Удаленная поддержка</text>
</svg>